<svg id="Capa_1" enable-background="new 0 0 512.777 512.777" height="512" viewBox="0 0 512.777 512.777" width="512"
     xmlns="http://www.w3.org/2000/svg">
    <g>
        <path fill="#CACACA" d="m97.888 185h-60c-4.142 0-7.5 3.358-7.5 7.5s3.358 7.5 7.5 7.5h60c4.142 0 7.5-3.358 7.5-7.5s-3.357-7.5-7.5-7.5z"/>
        <path fill="#CACACA" d="m97.888 155h-60c-4.142 0-7.5 3.358-7.5 7.5s3.358 7.5 7.5 7.5h60c4.142 0 7.5-3.358 7.5-7.5s-3.357-7.5-7.5-7.5z"/>
        <path fill="#CACACA" d="m97.888 125h-60c-4.142 0-7.5 3.358-7.5 7.5s3.358 7.5 7.5 7.5h60c4.142 0 7.5-3.358 7.5-7.5s-3.357-7.5-7.5-7.5z"/>
        <path fill="#CACACA" d="m470.165 374.528c-23.282 0-42.224 18.941-42.224 42.224 0 15.164 8.039 28.481 20.074 35.928l-19.556 49.857c-1.513 3.856.387 8.208 4.243 9.721.899.353 1.826.52 2.737.52 2.995 0 5.824-1.807 6.984-4.763l19.551-49.843c2.651.523 5.388.804 8.191.804 23.282 0 42.224-18.941 42.224-42.224s-18.942-42.224-42.224-42.224zm0 69.447c-15.011 0-27.224-12.212-27.224-27.224s12.212-27.224 27.224-27.224 27.224 12.212 27.224 27.224-12.213 27.224-27.224 27.224z"/>
        <path fill="#CACACA" d="m411.792 434.5h-121.404v-40c0-12.407-10.093-22.5-22.5-22.5h-115v-28.958c6.416-4.923 8.095-7.831 8.853-9.144l28.231-48.898h57.416v45c0 8.271 6.729 15 15 15h155c8.271 0 15-6.729 15-15v-45h21.67c12.864 0 23.33 10.466 23.33 23.33v48.799c0 4.142 3.358 7.5 7.5 7.5s7.5-3.358 7.5-7.5v-48.799c0-21.135-17.195-38.33-38.33-38.33h-21.67v-45c0-8.271-6.729-15-15-15h-70v-28.956c0-20.633-16.785-37.607-37.5-37.839h-174.5v-33.205c0-4.007-1.561-7.774-4.394-10.606l-4.295-4.295c5.562-3.6 11.905-5.098 20.7-5.098h200.345c3.804 41.987 39.182 75 82.144 75 45.491 0 82.5-37.009 82.5-82.5s-37.009-82.501-82.5-82.501c-13.841 0-27.536 3.497-39.604 10.112-3.632 1.991-4.963 6.549-2.972 10.182s6.55 4.964 10.182 2.972c9.865-5.408 21.066-8.266 32.394-8.266 37.22 0 67.5 30.28 67.5 67.5s-30.28 67.5-67.5 67.5-67.5-30.28-67.5-67.5c0-14.742 4.666-28.746 13.492-40.497 2.488-3.312 1.82-8.014-1.492-10.501-3.312-2.488-8.013-1.82-10.501 1.492-9.284 12.36-14.791 26.756-16.153 42.006h-200.334c-13.08 0-22.881 2.844-31.478 9.321l-29.926-29.926c-2.833-2.834-6.6-4.395-10.608-4.395h-60c-8.271 0-15 6.729-15 15v150c0 8.271 6.729 15 15 15h47.5v142h-40c-12.407 0-22.5 10.093-22.5 22.5v95c0 12.407 10.093 22.5 22.5 22.5h245c12.407 0 22.5-10.093 22.5-22.5v-17.5c0-4.142-3.358-7.5-7.5-7.5s-7.5 3.358-7.5 7.5v17.5c0 4.136-3.364 7.5-7.5 7.5h-245c-4.136 0-7.5-3.364-7.5-7.5v-95c0-4.136 3.364-7.5 7.5-7.5h40v25.949c-12.925 3.339-22.5 15.097-22.5 29.051 0 16.542 13.458 30 30 30s30-13.458 30-30c0-13.953-9.575-25.712-22.5-29.051v-182.949h42.5c8.271 0 15-6.729 15-15v-56.795h174.416c12.453.14 22.584 10.385 22.584 22.839v28.956h-15.986c-4.142 0-7.5 3.358-7.5 7.5s3.358 7.5 7.5 7.5h100.986v19.394l-12.5 12.5-14.697-14.697c-1.415-1.415-3.319-2.229-5.338-2.197-2.001.009-3.916.818-5.318 2.247l-45.97 46.84-14.647-14.646c-2.377-2.377-6.045-2.882-8.975-1.237l-47.556 26.698v-74.902h24.014c4.142 0 7.5-3.358 7.5-7.5s-3.358-7.5-7.5-7.5h-24.014c-8.271 0-15 6.729-15 15v45h-48.756l15.689-27.174c5.827-10.094-.069-24.041-13.423-31.751-5.891-3.401-12.433-5.067-18.414-4.691-7.012.44-12.769 3.7-15.795 8.942l-52.58 91.071c-1.275 2.209-5.156 8.931-4.293 36.914.162 5.235 2.964 9.923 7.496 12.54 2.333 1.347 4.913 2.022 7.496 2.022 2.434 0 4.872-.6 7.109-1.801 2.146-1.152 4.126-2.252 5.97-3.307v19.235h-37.5c-4.142 0-7.5 3.358-7.5 7.5s3.358 7.5 7.5 7.5h37.5v25.949c-12.925 3.339-22.5 15.097-22.5 29.051 0 16.542 13.458 30 30 30s30-13.458 30-30c0-13.953-9.575-25.712-22.5-29.051v-25.949h115c4.136 0 7.5 3.364 7.5 7.5v40h-25.949c-3.339-12.925-15.097-22.5-29.051-22.5-16.542 0-30 13.458-30 30s13.458 30 30 30c13.953 0 25.712-9.575 29.051-22.5h162.353c4.142 0 7.5-3.358 7.5-7.5s-3.356-7.5-7.498-7.5zm-326.404 7.5c0 8.271-6.729 15-15 15s-15-6.729-15-15 6.729-15 15-15 15 6.729 15 15zm5-347v-15l15 15zm-75 120v-150h60v30h-37.5c-4.142 0-7.5 3.358-7.5 7.5s3.358 7.5 7.5 7.5h82.5l.009 105zm296.943 74.065 15.981 15.981c1.415 1.415 3.297 2.187 5.338 2.197 2.001-.009 3.916-.818 5.317-2.247l45.97-46.84 14.647 14.646c2.929 2.929 7.678 2.929 10.606 0l7.197-7.197v64.395h-155v-12.897zm-159.83 30.837-21.65-12.5 21.723-37.625 21.65 12.5zm15.072-76.106 21.651 12.5-7.5 12.991-21.651-12.5zm15.853-22.442c.247-.015.496-.023.75-.023 2.864 0 6.18.977 9.223 2.734 6.715 3.877 8.952 9.495 7.933 11.26l-4.608 7.98-21.651-12.5 4.607-7.98c.457-.79 1.893-1.354 3.746-1.471zm-58.616 121.495c-.314-10.18.036-16.907.551-21.295l17.627 10.177c-3.544 2.639-9.198 6.303-18.178 11.118zm35.578 99.151c0 8.271-6.729 15-15 15s-15-6.729-15-15 6.729-15 15-15 15 6.729 15 15zm60 15c-8.271 0-15-6.729-15-15s6.729-15 15-15 15 6.729 15 15-6.729 15-15 15z"/>
        <path fill="#CACACA" d="m429.888 105c12.407 0 22.5-10.093 22.5-22.5s-10.093-22.5-22.5-22.5-22.5 10.093-22.5 22.5 10.094 22.5 22.5 22.5zm0-30c4.136 0 7.5 3.364 7.5 7.5s-3.364 7.5-7.5 7.5-7.5-3.364-7.5-7.5 3.365-7.5 7.5-7.5z"/>
        <path fill="#CACACA" d="m429.888 135c28.949 0 52.5-23.551 52.5-52.5s-23.551-52.5-52.5-52.5-52.5 23.551-52.5 52.5 23.552 52.5 52.5 52.5zm0-90c20.678 0 37.5 16.822 37.5 37.5s-16.822 37.5-37.5 37.5-37.5-16.822-37.5-37.5 16.823-37.5 37.5-37.5z"/>
    </g>
</svg>
